<svg width="182" height="48" viewBox="0 0 182 48" fill="none" xmlns="http://www.w3.org/2000/svg">
<path d="M5.39195 17.3361C5.50066 17.7483 5.19627 17.9002 4.67447 17.7049C2.02198 16.6418 0.630513 15.3399 0.152195 13.9296C0.0434861 13.6258 0 13.3221 0 13.0183C0 8.44022 11.4144 4.59981 16.328 4.59981C16.7629 4.59981 17.1325 4.6215 17.4586 4.68659C18.5457 4.90357 19.5458 5.4243 20.1763 6.31388C20.5242 6.79122 20.6546 7.52893 20.6546 8.5053C20.6546 11.6948 19.0458 17.271 17.3934 23.0858C17.1107 24.0405 13.5016 35.0627 13.5016 39.4455C13.5016 40.5521 13.719 41.2247 14.2843 41.2247C14.4148 41.2247 14.5452 41.203 14.6974 41.1162C24.416 36.9287 41.7441 11.8033 41.7441 0.607519C41.7441 0.499033 41.7441 0.412246 41.7441 0.30376C41.7441 0.0867875 41.8746 0 42.0485 0C42.592 0 43.6357 0.716004 43.6357 1.34522C43.6357 1.45371 43.6357 1.5405 43.6357 1.64898C43.6357 13.0834 26.1988 38.4041 16.2628 42.6784C15.7628 42.8954 15.2844 43.0039 14.8496 43.0039C14.0452 43.0039 13.3277 42.6567 12.6537 41.8973C12.0449 41.2247 11.8058 40.0965 11.8058 38.621C11.8058 34.6071 13.6755 28.0762 15.4801 21.784C17.2195 15.7088 18.8936 9.89393 18.8936 7.37705C18.8936 6.94311 18.8501 6.61765 18.7414 6.37898C18.35 6.2271 17.8282 6.16201 17.2195 6.16201C12.4145 6.16201 1.84805 10.393 1.84805 13.9947C1.84805 14.19 1.86979 14.3853 1.93502 14.5805C2.10895 15.1013 2.80468 15.6437 4.19615 16.2078C4.76144 16.4465 5.28324 16.9238 5.39195 17.3361Z" fill="#303030"/>
<path d="M35.8956 37.6013C36.6348 37.6013 37.2436 38.2088 37.2436 38.9465C37.2436 39.6842 36.6348 40.2917 35.8956 40.2917C35.1564 40.2917 34.5476 39.6842 34.5476 38.9465C34.5259 38.2088 35.1346 37.6013 35.8956 37.6013Z" fill="#303030"/>
<path d="M74.7263 4.38283C74.7263 4.57811 74.5959 4.70829 74.3567 4.70829C74.1393 4.70829 73.8132 4.57811 73.4436 4.29605C72.4 3.47155 71.2476 3.1244 70.0519 3.1244C68.3995 3.1244 66.6819 3.77531 65.0947 4.75169C65.5078 4.72999 65.9209 4.70829 66.3123 4.70829C72.8348 4.70829 75.6177 8.65718 75.6177 16.2295C75.6177 26.1451 67.769 44.9566 55.9632 44.9566C55.9415 44.9566 55.9415 44.9566 55.9197 44.9566C51.3974 44.9349 48.0492 42.2011 47.1361 37.7098C46.9404 36.7551 46.8534 35.7136 46.8534 34.6071C46.8534 34.1948 46.8752 33.7826 46.8969 33.3486C42.8747 32.0685 40.2005 28.9875 40.2005 24.8433C40.2005 14.8409 51.9845 7.20347 60.5942 5.35921C61.5291 4.53471 62.464 3.79701 63.4206 3.21118C65.2687 2.06123 67.0732 1.45371 68.8561 1.45371C70.6606 1.45371 72.4217 2.08293 74.1393 3.44985C74.5306 3.81871 74.7263 4.14416 74.7263 4.38283ZM42.0702 25.9282C42.0702 29.3129 43.7661 31.3091 46.9839 32.1336C47.8753 24.0839 52.5715 14.3419 57.833 8.20154C50.9409 10.7401 42.0702 17.77 42.0702 25.9282ZM48.9841 32.459C49.5059 32.5024 50.0277 32.5241 50.6147 32.5241C52.7672 32.5241 55.3544 32.177 58.42 31.4393C58.4635 31.4176 58.507 31.4176 58.5722 31.4176C59.2245 31.4176 60.1159 32.3071 60.1159 32.7845C60.1159 32.9147 60.0507 33.0015 59.8985 33.0449C56.9633 33.7609 54.3978 34.0863 52.1367 34.0863C50.9409 34.0863 49.832 33.9995 48.8319 33.8259C48.7667 34.542 48.7232 35.258 48.7232 35.9523C48.7232 39.8578 49.8973 43.2642 54.6804 43.2859C54.7022 43.2859 54.7022 43.2859 54.7239 43.2859C66.2036 43.2859 73.7045 24.3877 73.7045 14.8843C73.7045 8.28833 71.5955 6.24879 67.4863 6.24879C65.9861 6.24879 64.2251 6.50916 62.2031 6.94311C55.6153 12.9532 50.1582 24.149 48.9841 32.459Z" fill="#303030"/>
<path d="M88.9671 15.8607C88.9671 16.0559 88.8367 16.1644 88.5975 16.1644C88.2932 16.1644 87.8148 15.9475 87.2713 15.3833C86.6843 14.7541 86.3581 14.1466 86.3581 13.5391C86.3581 12.9966 86.619 12.4759 87.1408 11.9769C91.3587 8.04967 113.514 5.03375 126.602 5.03375C130.494 5.03375 133.581 5.29412 135.168 5.87994C135.668 6.07522 136.19 6.55256 136.342 6.9648C136.473 7.37705 136.19 7.57233 135.668 7.37706C134.255 6.85632 131.472 6.61765 127.95 6.61765C115.275 6.61765 92.9024 9.67696 88.8584 13.4523C88.5323 13.756 88.2279 14.1683 88.2279 14.5588C88.2279 14.7324 88.2932 14.906 88.4454 15.0579C88.815 15.3833 88.9671 15.6654 88.9671 15.8607ZM110.948 12.107C110.013 13.04 107.948 18.4643 105.6 24.865C109.709 24.2358 114.166 23.7585 117.014 23.7585C118.188 23.7585 119.101 23.8452 119.601 24.0188C120.645 24.4094 121.188 24.8867 121.188 25.4725C121.188 25.6027 121.167 25.7112 121.123 25.8631C121.08 25.9933 120.971 26.0584 120.819 26.0584C120.427 26.0584 119.819 25.6244 119.623 25.4291C119.079 25.3424 118.427 25.3207 117.71 25.3207C113.883 25.3207 108.165 26.3187 104.882 26.8612C103.665 30.1808 102.469 33.5005 101.229 36.8202C101.034 37.84 100.773 38.8814 100.447 39.8578C99.5119 42.8303 98.2074 45.5642 97.816 45.7377C97.7073 45.7811 97.5986 45.8028 97.4682 45.8028C96.7942 45.8028 96.055 45.0651 96.055 44.2406C96.055 44.1104 96.0767 43.9803 96.1202 43.8501C96.9029 41.2247 98.3596 38.1654 99.338 35.54C99.4684 34.8023 99.6641 33.7175 99.6641 32.6977C99.6641 31.1572 99.251 29.7035 97.6204 29.6167C95.381 29.4865 94.4243 28.879 94.4243 27.9026C94.4243 27.1215 98.3161 26.1668 103.099 25.3207C105.86 17.77 108.361 11.0873 109.426 10.5015C109.622 10.393 109.796 10.3496 109.97 10.3496C110.47 10.3496 110.926 10.7401 111.383 11.5429C111.666 11.9552 111.448 12.2372 110.948 12.107ZM102.404 27.2517C100.621 27.5772 99.0771 27.9026 98.0117 28.1847C99.3597 28.662 100.49 29.7035 101.034 31.0053C101.49 29.7469 101.947 28.4884 102.404 27.2517Z" fill="#303030"/>
<path d="M128.537 25.3207C126.319 25.9716 123.319 28.2498 123.319 30.4846C123.319 30.6799 123.341 30.8751 123.384 31.0704C125.732 30.8534 130.342 25.7546 130.363 25.7329C130.494 25.581 130.646 25.5159 130.82 25.5159C131.472 25.5159 132.255 26.514 132.255 26.9262C132.255 26.9696 132.233 27.013 132.211 27.0347C132.103 27.8158 132.059 28.4667 132.059 29.0309C132.059 29.6167 132.124 30.094 132.233 30.4846C132.298 30.7233 132.516 30.81 132.842 30.81C134.69 30.81 139.995 27.447 140.778 26.9696C140.843 26.9262 140.93 26.9045 141.017 26.9045C141.582 26.9045 142.474 27.7724 142.474 28.2715C142.474 28.38 142.43 28.4667 142.343 28.5318C140.038 29.9639 136.582 32.4373 133.994 32.4373C133.712 32.4373 133.451 32.4156 133.19 32.3505C131.559 31.96 130.559 30.8534 130.276 29.1177C128.515 30.7233 126.059 32.7194 124.384 32.7194C124.297 32.7194 124.232 32.7194 124.145 32.6977C122.993 32.5675 121.884 31.5694 121.558 30.3544C121.471 30.0723 121.449 29.7686 121.449 29.4865C121.449 26.7744 124.819 24.3226 127.08 23.6717C127.341 23.5849 127.624 23.5632 127.885 23.5632C128.581 23.5632 129.233 23.8452 129.711 24.4311C130.037 24.8216 130.146 25.2556 129.972 25.6678C129.776 26.1017 128.885 25.6461 128.537 25.3207Z" fill="#303030"/>
<path d="M147.757 5.18563C148.279 5.53279 148.605 6.05352 148.518 6.33558C148.496 6.37898 147.191 10.1326 145.43 15.3833C153.388 14.5805 161.889 14.4503 166.542 16.5767C167.063 16.8153 167.542 17.3144 167.629 17.7049C167.716 18.0955 167.346 18.2257 166.824 17.987C162.193 15.8607 153.062 16.2512 144.843 17.2059C141.278 28.0328 135.734 43.6331 136.06 47.6688C136.081 48.0376 135.69 48.1027 135.147 47.8424C134.625 47.5603 134.168 47.0613 134.146 46.6924C133.842 42.7652 138.951 28.2932 142.452 17.5313C134.668 18.5728 128.254 19.9614 128.233 19.9831C127.885 20.0482 127.298 19.7662 126.885 19.3105C126.493 18.8549 126.45 18.4426 126.776 18.3558C126.819 18.3558 134.32 16.7069 143.061 15.6871C145.061 9.63356 146.626 5.12054 146.648 5.09885C146.735 4.77339 147.235 4.81678 147.757 5.18563Z" fill="#303030"/>
<path d="M146.235 25.9282C146.235 24.2792 147.865 23.4764 149.54 23.4764C150.648 23.4764 151.757 23.8235 152.475 24.4961C153.192 25.1905 153.562 26.1885 153.562 27.2517C153.562 27.9243 153.41 28.6186 153.127 29.3129C154.54 29.0309 156.649 28.3149 158.388 26.8828C158.454 26.8178 158.541 26.7961 158.628 26.7961C159.171 26.7961 160.019 27.6423 160.019 28.1413C160.019 28.2498 159.976 28.3366 159.91 28.4016C157.519 30.3327 154.997 31.0487 152.997 31.0487C152.736 31.0487 152.496 31.027 152.257 31.027C150.344 34.1297 148.235 34.8891 146.67 34.8891C145.278 34.8891 144.343 34.3033 144.387 34.2165C143.408 33.5222 143.017 32.6326 143.017 31.6779C143.017 29.6601 144.8 27.4036 146.257 26.2102C146.235 26.1234 146.235 26.0367 146.235 25.9282ZM144.887 32.6543C144.865 32.9581 144.865 33.175 144.887 33.2618C145.126 33.3703 145.409 33.4354 145.67 33.4354C147.148 33.4354 148.887 31.8515 149.931 30.4195C148.822 29.9205 147.909 29.2044 147.257 28.4016C146.278 29.4431 144.996 31.244 144.887 32.6543ZM149.105 26.8612C149.105 27.1866 148.539 27.2517 148.213 27.5121C148.518 28.5535 149.54 29.1177 150.627 29.3563C151.127 28.4667 151.692 27.0781 151.692 26.015C151.692 25.6895 151.627 25.3857 151.496 25.1471C151.475 25.1037 151.366 25.082 151.192 25.082C150.518 25.082 148.931 25.4291 148.453 26.0584C148.931 26.4272 149.105 26.6876 149.105 26.8612Z" fill="#303030"/>
<path d="M165.302 5.70637C165.911 5.70637 167.063 6.63935 166.868 7.18178C166.846 7.24687 160.237 23.4547 157.454 31.9166C158.932 29.6601 162.933 23.2377 164.715 22.3481C164.911 22.2613 165.085 22.2179 165.281 22.2179C166.194 22.2179 167.042 23.1943 167.042 23.6283C167.042 23.7151 166.998 23.7801 166.911 23.8235C166.65 23.8886 166.629 23.5198 165.65 24.4745C164.672 25.4074 163.367 27.2083 162.019 29.1828C162.019 29.2695 161.998 29.4431 161.998 29.6601C161.998 30.4195 162.085 31.7213 162.672 32.1119C162.911 32.2638 163.193 32.3505 163.541 32.3505C166.085 32.3505 171.238 28.3149 172.434 26.9696C172.499 26.9045 172.564 26.8828 172.651 26.8828C173.151 26.8828 173.999 27.8592 173.999 28.4234C173.999 28.5318 173.977 28.6186 173.912 28.6837C172.042 30.745 168.129 33.9127 164.781 33.9127C163.911 33.9127 163.063 33.6958 162.324 33.175C161.541 32.6326 161.019 31.9166 160.693 31.1789C159.063 33.6307 156.758 37.3192 155.91 37.3192C154.823 37.3192 154.236 36.69 154.236 35.7353C154.236 32.3939 164.955 5.98843 164.976 5.90164C165.063 5.77146 165.172 5.70637 165.302 5.70637Z" fill="#303030"/>
<path d="M173.021 23.1292C173.564 23.1292 174.608 23.932 174.608 24.4745C174.608 24.5396 174.608 24.5829 174.564 24.6263C173.825 26.1885 171.977 30.3544 171.977 32.6326C171.977 32.9147 171.999 33.1967 172.064 33.4137C172.086 33.4137 172.108 33.4137 172.129 33.4137C174.63 33.4137 179.13 28.6186 180.587 26.8612C180.652 26.7961 180.717 26.7527 180.804 26.7527C181.261 26.7527 182 27.7073 182 28.2932C182 28.4016 181.978 28.4884 181.913 28.5752C180.304 30.528 176.304 35.041 173.26 35.041C173.021 35.041 172.76 35.0193 172.542 34.9542C171.738 34.7372 170.977 34.1297 170.564 33.4354C170.259 32.9147 170.129 32.2638 170.129 31.5477C170.129 28.8573 171.868 25.082 172.716 23.3028C172.782 23.1943 172.89 23.1292 173.021 23.1292ZM175.391 22.283C174.825 22.283 173.803 21.4585 173.803 20.9378C173.803 20.8727 173.825 20.8076 173.847 20.7642L176.065 17.2276C176.13 17.1191 176.238 17.0757 176.369 17.0757C176.934 17.0757 177.956 17.9002 177.956 18.4209C177.956 18.486 177.934 18.5511 177.913 18.5945L175.695 22.1312C175.63 22.2396 175.521 22.283 175.391 22.283Z" fill="#303030"/>
</svg>
