<svg width="32" height="32" viewBox="0 0 32 32" fill="none" xmlns="http://www.w3.org/2000/svg">
<path d="M26 10L24.0133 11.9867L20.0133 7.98667L22 6.00001C22.56 5.44001 23.28 5.17334 24 5.17334C24.72 5.17334 25.44 5.44001 26 6.00001C27.1067 7.10667 27.1067 8.89334 26 10Z" fill="#303030"/>
<path d="M23.08 12.9333L8.66667 27.3334C7.56 28.44 5.77334 28.44 4.66667 27.3334C3.56 26.2267 3.56 24.44 4.66667 23.3334L19.08 8.93335L23.08 12.9333Z" fill="#303030"/>
<path d="M13.2667 4.66669L13.8133 2.81336C13.8667 2.64002 13.8133 2.45336 13.6933 2.32002C13.5733 2.18669 13.36 2.13336 13.1867 2.18669L11.3333 2.73336L9.48 2.18669C9.30666 2.13336 9.12 2.18669 8.98666 2.30669C8.85333 2.44002 8.81333 2.62669 8.86666 2.80002L9.4 4.66669L8.85333 6.52002C8.8 6.69336 8.85333 6.88002 8.97333 7.01336C9.10666 7.14669 9.29333 7.18669 9.46666 7.13336L11.3333 6.60002L13.1867 7.14669C13.24 7.16002 13.28 7.17336 13.3333 7.17336C13.4667 7.17336 13.5867 7.12002 13.6933 7.02669C13.8267 6.89336 13.8667 6.70669 13.8133 6.53336L13.2667 4.66669Z" fill="#303030"/>
<path d="M7.93333 12.6667L8.48 10.8134C8.53334 10.64 8.48 10.4534 8.36 10.32C8.22667 10.1867 8.04 10.1467 7.86667 10.2L6 10.7334L4.14667 10.1867C3.97334 10.1334 3.78667 10.1867 3.65334 10.3067C3.52 10.44 3.48 10.6267 3.53334 10.8L4.06667 12.6667L3.52 14.52C3.46667 14.6934 3.52 14.88 3.64 15.0134C3.77334 15.1467 3.96 15.1867 4.13334 15.1334L5.98667 14.5867L7.84 15.1334C7.88 15.1467 7.93333 15.1467 7.98667 15.1467C8.12 15.1467 8.24 15.0934 8.34667 15C8.48 14.8667 8.52 14.68 8.46667 14.5067L7.93333 12.6667Z" fill="#303030"/>
<path d="M27.9333 19.3333L28.48 17.48C28.5333 17.3067 28.48 17.12 28.36 16.9867C28.2267 16.8533 28.04 16.8133 27.8667 16.8667L26.0133 17.4133L24.16 16.8667C23.9867 16.8133 23.8 16.8667 23.6667 16.9867C23.5333 17.12 23.4933 17.3067 23.5467 17.48L24.0933 19.3333L23.5467 21.1867C23.4933 21.36 23.5467 21.5467 23.6667 21.68C23.8 21.8133 23.9867 21.8533 24.16 21.8L26.0133 21.2533L27.8667 21.8C27.9067 21.8133 27.96 21.8133 28.0133 21.8133C28.1467 21.8133 28.2667 21.76 28.3733 21.6667C28.5067 21.5333 28.5467 21.3467 28.4933 21.1733L27.9333 19.3333Z" fill="#303030"/>
</svg>
